M48
;DRILL file {KiCad 4.0.2-stable} date Monday, April 10, 2017 'PMt' 01:57:23 PM
;FORMAT={-:-/ absolute / metric / decimal}
FMAT,2
METRIC,TZ
T1C0.762
T2C1.016
%
G90
G05
M71
T1
X101.842Y-43.282
X103.842Y-43.282
X105.842Y-43.282
X107.842Y-43.282
T2
X97.701Y-41.504
X97.701Y-44.044
X97.701Y-46.584
X97.701Y-49.124
X97.701Y-51.664
X97.701Y-54.204
X97.701Y-56.744
X97.701Y-59.284
X97.701Y-63.348
X97.701Y-65.888
X97.701Y-68.428
X97.701Y-70.968
X97.701Y-73.508
X97.701Y-76.048
X97.701Y-78.588
X97.701Y-81.128
X97.701Y-83.668
X97.701Y-86.208
X141.58Y-48.108
X141.58Y-50.648
X141.58Y-53.188
X141.58Y-55.728
X141.58Y-58.268
X141.58Y-60.808
X141.58Y-63.348
X141.58Y-65.888
X141.58Y-68.428
X141.58Y-70.968
X141.58Y-73.508
X141.58Y-76.048
X141.58Y-78.588
X141.58Y-81.128
X141.58Y-83.668
X141.58Y-86.208
X145.961Y-41.504
X145.961Y-44.044
X145.961Y-46.584
X145.961Y-49.124
X145.961Y-51.664
X145.961Y-54.204
X145.961Y-59.284
X145.961Y-61.824
X145.961Y-64.364
X145.961Y-66.904
X145.961Y-69.444
X145.961Y-71.984
X145.961Y-74.524
X145.961Y-77.064
T0
M30
