G04 #@! TF.FileFunction,Copper,L1,Top,Signal*
%FSLAX46Y46*%
G04 Gerber Fmt 4.6, Leading zero omitted, Abs format (unit mm)*
G04 Created by KiCad (PCBNEW 4.0.2-stable) date Monday, April 10, 2017 'PMt' 01:57:30 PM*
%MOMM*%
G01*
G04 APERTURE LIST*
%ADD10C,0.100000*%
%ADD11C,1.524000*%
%ADD12C,1.778000*%
%ADD13C,0.800000*%
%ADD14C,0.250000*%
%ADD15C,0.254000*%
G04 APERTURE END LIST*
D10*
D11*
X145961100Y-41503600D03*
X145961100Y-44043600D03*
X145961100Y-46583600D03*
X145961100Y-54203600D03*
X145961100Y-51663600D03*
X145961100Y-49123600D03*
X145961100Y-59283600D03*
X145961100Y-61823600D03*
X145961100Y-64363600D03*
X145961100Y-69443600D03*
X145961100Y-71983600D03*
X97701100Y-41503600D03*
X97701100Y-44043600D03*
X97701100Y-46583600D03*
X97701100Y-49123600D03*
X97701100Y-51663600D03*
X97701100Y-54203600D03*
X97701100Y-56743600D03*
X97701100Y-59283600D03*
X97701100Y-63347600D03*
X97701100Y-65887600D03*
X97701100Y-68427600D03*
X97701100Y-70967600D03*
X97701100Y-73507600D03*
X97701100Y-76047600D03*
X97701100Y-78587600D03*
X97701100Y-81127600D03*
X145961100Y-66903600D03*
X97701100Y-83667600D03*
X97701100Y-86207600D03*
X145961100Y-74523600D03*
X145961100Y-77063600D03*
X101841800Y-43281600D03*
X103841800Y-43281600D03*
X105841800Y-43281600D03*
X107841800Y-43281600D03*
D12*
X141579600Y-86207600D03*
X141579600Y-83667600D03*
X141579600Y-81127600D03*
X141579600Y-78587600D03*
X141579600Y-76047600D03*
X141579600Y-73507600D03*
X141579600Y-70967600D03*
X141579600Y-68427600D03*
X141579600Y-65887600D03*
X141579600Y-63347600D03*
X141579600Y-60807600D03*
X141579600Y-58267600D03*
X141579600Y-55727600D03*
X141579600Y-53187600D03*
X141579600Y-50647600D03*
X141579600Y-48107600D03*
D13*
X141579600Y-81127600D02*
X142773400Y-81127600D01*
X147623101Y-66025601D02*
X146723099Y-65125599D01*
X142773400Y-81127600D02*
X143383000Y-80518000D01*
X146744462Y-78740000D02*
X147623101Y-77861361D01*
X143383000Y-80518000D02*
X143383000Y-78740000D01*
X143383000Y-78740000D02*
X146744462Y-78740000D01*
X147623101Y-77861361D02*
X147623101Y-66025601D01*
X146723099Y-65125599D02*
X145961100Y-64363600D01*
D14*
X97701100Y-59283600D02*
X98888101Y-58096599D01*
X98888101Y-58096599D02*
X98888101Y-46235299D01*
X98888101Y-46235299D02*
X101079801Y-44043599D01*
X101079801Y-44043599D02*
X101841800Y-43281600D01*
X97701100Y-63347600D02*
X99438111Y-61610589D01*
X99438111Y-47685289D02*
X103841800Y-43281600D01*
X99438111Y-61610589D02*
X99438111Y-47685289D01*
X143052800Y-59334400D02*
X143052800Y-49491900D01*
X143052800Y-49491900D02*
X145961100Y-46583600D01*
X141579600Y-60807600D02*
X143052800Y-59334400D01*
X141579600Y-68427600D02*
X143129000Y-66878200D01*
X143129000Y-66878200D02*
X143129000Y-65532000D01*
X143129000Y-65532000D02*
X144152820Y-64508180D01*
X144152820Y-64508180D02*
X144152820Y-53471880D01*
X144152820Y-53471880D02*
X145199101Y-52425599D01*
X145199101Y-52425599D02*
X145961100Y-51663600D01*
X141579600Y-65887600D02*
X143602810Y-63864390D01*
X143602810Y-63864390D02*
X143602810Y-51481890D01*
X143602810Y-51481890D02*
X145961100Y-49123600D01*
X141579600Y-76047600D02*
X138099800Y-72567800D01*
X138099800Y-72567800D02*
X100084538Y-72567800D01*
X98888101Y-71371363D02*
X98888101Y-70397839D01*
X100084538Y-72567800D02*
X98888101Y-71371363D01*
X98270861Y-69780599D02*
X97297337Y-69780599D01*
X98888101Y-70397839D02*
X98270861Y-69780599D01*
X95935800Y-68419062D02*
X95935800Y-50888900D01*
X96939101Y-49885599D02*
X97701100Y-49123600D01*
X97297337Y-69780599D02*
X95935800Y-68419062D01*
X95935800Y-50888900D02*
X96939101Y-49885599D01*
X97701100Y-56743600D02*
X96494600Y-57950100D01*
X96494600Y-57950100D02*
X96494600Y-66437862D01*
X96494600Y-66437862D02*
X97297337Y-67240599D01*
X97297337Y-67240599D02*
X98270861Y-67240599D01*
X98270861Y-67240599D02*
X98888101Y-67857839D01*
X102014938Y-71958200D02*
X140030200Y-71958200D01*
X98888101Y-67857839D02*
X98888101Y-68831363D01*
X98888101Y-68831363D02*
X102014938Y-71958200D01*
X140690601Y-72618601D02*
X141579600Y-73507600D01*
X140030200Y-71958200D02*
X140690601Y-72618601D01*
X97701100Y-57434900D02*
X97701100Y-56743600D01*
X97701100Y-65887600D02*
X103136700Y-71323200D01*
X103136700Y-71323200D02*
X141224000Y-71323200D01*
X141224000Y-71323200D02*
X141579600Y-70967600D01*
X141579600Y-78587600D02*
X145643600Y-74523600D01*
X145643600Y-74523600D02*
X145961100Y-74523600D01*
D15*
G36*
X148003800Y-78997600D02*
X144213800Y-78997600D01*
X143942095Y-79051646D01*
X143711754Y-79205554D01*
X143557846Y-79435895D01*
X143503800Y-79707600D01*
X143503800Y-87497600D01*
X142444492Y-87497600D01*
X142870831Y-87072004D01*
X143103335Y-86512072D01*
X143103864Y-85905788D01*
X142872338Y-85345451D01*
X142464863Y-84937264D01*
X142870831Y-84532004D01*
X143103335Y-83972072D01*
X143103864Y-83365788D01*
X142872338Y-82805451D01*
X142444004Y-82376369D01*
X142417094Y-82365195D01*
X142472191Y-82199796D01*
X141579600Y-81307205D01*
X140687009Y-82199796D01*
X140741953Y-82364738D01*
X140717451Y-82374862D01*
X140288369Y-82803196D01*
X140055865Y-83363128D01*
X140055336Y-83969412D01*
X140286862Y-84529749D01*
X140694337Y-84937936D01*
X140288369Y-85343196D01*
X140055865Y-85903128D01*
X140055336Y-86509412D01*
X140286862Y-87069749D01*
X140713967Y-87497600D01*
X139507892Y-87497600D01*
X136715846Y-84705554D01*
X136485505Y-84551646D01*
X136213800Y-84497600D01*
X106713800Y-84497600D01*
X106442095Y-84551646D01*
X106211754Y-84705554D01*
X103419708Y-87497600D01*
X98237307Y-87497600D01*
X98491403Y-87392610D01*
X98884729Y-86999970D01*
X99097857Y-86486700D01*
X99098342Y-85930939D01*
X98886110Y-85417297D01*
X98550305Y-85080905D01*
X99694274Y-85080905D01*
X99980643Y-85773972D01*
X100510439Y-86304693D01*
X101203005Y-86592272D01*
X101952905Y-86592926D01*
X102645972Y-86306557D01*
X103176693Y-85776761D01*
X103464272Y-85084195D01*
X103464926Y-84334295D01*
X103178557Y-83641228D01*
X102648761Y-83110507D01*
X101956195Y-82822928D01*
X101206295Y-82822274D01*
X100513228Y-83108643D01*
X99982507Y-83638439D01*
X99694928Y-84331005D01*
X99694274Y-85080905D01*
X98550305Y-85080905D01*
X98493470Y-85023971D01*
X98285588Y-84937651D01*
X98491403Y-84852610D01*
X98884729Y-84459970D01*
X99097857Y-83946700D01*
X99098342Y-83390939D01*
X98886110Y-82877297D01*
X98493470Y-82483971D01*
X98285588Y-82397651D01*
X98491403Y-82312610D01*
X98884729Y-81919970D01*
X99097857Y-81406700D01*
X99098308Y-80889565D01*
X140044084Y-80889565D01*
X140069877Y-81495300D01*
X140252061Y-81935133D01*
X140507404Y-82020191D01*
X141399995Y-81127600D01*
X141759205Y-81127600D01*
X142651796Y-82020191D01*
X142907139Y-81935133D01*
X143115116Y-81365635D01*
X143089323Y-80759900D01*
X142907139Y-80320067D01*
X142651796Y-80235009D01*
X141759205Y-81127600D01*
X141399995Y-81127600D01*
X140507404Y-80235009D01*
X140252061Y-80320067D01*
X140044084Y-80889565D01*
X99098308Y-80889565D01*
X99098342Y-80850939D01*
X98886110Y-80337297D01*
X98493470Y-79943971D01*
X98285588Y-79857651D01*
X98491403Y-79772610D01*
X98884729Y-79379970D01*
X99097857Y-78866700D01*
X99098342Y-78310939D01*
X98886110Y-77797297D01*
X98493470Y-77403971D01*
X98285588Y-77317651D01*
X98491403Y-77232610D01*
X98884729Y-76839970D01*
X99097857Y-76326700D01*
X99098342Y-75770939D01*
X98886110Y-75257297D01*
X98493470Y-74863971D01*
X98285588Y-74777651D01*
X98491403Y-74692610D01*
X98884729Y-74299970D01*
X99097857Y-73786700D01*
X99098342Y-73230939D01*
X98886110Y-72717297D01*
X98493470Y-72323971D01*
X98285588Y-72237651D01*
X98491403Y-72152610D01*
X98543020Y-72101084D01*
X99547137Y-73105201D01*
X99793698Y-73269948D01*
X99841952Y-73279546D01*
X100084538Y-73327800D01*
X137784998Y-73327800D01*
X140098250Y-75641052D01*
X140055865Y-75743128D01*
X140055336Y-76349412D01*
X140286862Y-76909749D01*
X140694337Y-77317936D01*
X140288369Y-77723196D01*
X140055865Y-78283128D01*
X140055336Y-78889412D01*
X140286862Y-79449749D01*
X140715196Y-79878831D01*
X140742106Y-79890005D01*
X140687009Y-80055404D01*
X141579600Y-80947995D01*
X142472191Y-80055404D01*
X142417247Y-79890462D01*
X142441749Y-79880338D01*
X142870831Y-79452004D01*
X143103335Y-78892072D01*
X143103864Y-78285788D01*
X143060694Y-78181308D01*
X144640210Y-76601792D01*
X144564343Y-76784500D01*
X144563858Y-77340261D01*
X144776090Y-77853903D01*
X145168730Y-78247229D01*
X145682000Y-78460357D01*
X146237761Y-78460842D01*
X146751403Y-78248610D01*
X147144729Y-77855970D01*
X147357857Y-77342700D01*
X147358342Y-76786939D01*
X147146110Y-76273297D01*
X146753470Y-75879971D01*
X146545588Y-75793651D01*
X146751403Y-75708610D01*
X147144729Y-75315970D01*
X147357857Y-74802700D01*
X147358342Y-74246939D01*
X147146110Y-73733297D01*
X146753470Y-73339971D01*
X146545588Y-73253651D01*
X146751403Y-73168610D01*
X147144729Y-72775970D01*
X147357857Y-72262700D01*
X147358342Y-71706939D01*
X147146110Y-71193297D01*
X146753470Y-70799971D01*
X146545588Y-70713651D01*
X146751403Y-70628610D01*
X147144729Y-70235970D01*
X147357857Y-69722700D01*
X147358342Y-69166939D01*
X147146110Y-68653297D01*
X146753470Y-68259971D01*
X146545588Y-68173651D01*
X146751403Y-68088610D01*
X147144729Y-67695970D01*
X147357857Y-67182700D01*
X147358342Y-66626939D01*
X147146110Y-66113297D01*
X146753470Y-65719971D01*
X146561373Y-65640205D01*
X146692243Y-65585997D01*
X146761708Y-65343813D01*
X145961100Y-64543205D01*
X145160492Y-65343813D01*
X145229957Y-65585997D01*
X145370418Y-65636109D01*
X145170797Y-65718590D01*
X144777471Y-66111230D01*
X144564343Y-66624500D01*
X144563858Y-67180261D01*
X144776090Y-67693903D01*
X145168730Y-68087229D01*
X145376612Y-68173549D01*
X145170797Y-68258590D01*
X144777471Y-68651230D01*
X144564343Y-69164500D01*
X144563858Y-69720261D01*
X144776090Y-70233903D01*
X145168730Y-70627229D01*
X145376612Y-70713549D01*
X145170797Y-70798590D01*
X144777471Y-71191230D01*
X144564343Y-71704500D01*
X144563858Y-72260261D01*
X144776090Y-72773903D01*
X145168730Y-73167229D01*
X145376612Y-73253549D01*
X145170797Y-73338590D01*
X144777471Y-73731230D01*
X144564343Y-74244500D01*
X144564095Y-74528303D01*
X143103652Y-75988746D01*
X143103864Y-75745788D01*
X142872338Y-75185451D01*
X142464863Y-74777264D01*
X142870831Y-74372004D01*
X143103335Y-73812072D01*
X143103864Y-73205788D01*
X142872338Y-72645451D01*
X142464863Y-72237264D01*
X142870831Y-71832004D01*
X143103335Y-71272072D01*
X143103864Y-70665788D01*
X142872338Y-70105451D01*
X142464863Y-69697264D01*
X142870831Y-69292004D01*
X143103335Y-68732072D01*
X143103864Y-68125788D01*
X143060694Y-68021309D01*
X143666401Y-67415602D01*
X143823598Y-67180338D01*
X143831148Y-67169039D01*
X143889000Y-66878200D01*
X143889000Y-65846802D01*
X144690221Y-65045581D01*
X144707579Y-65019603D01*
X144738703Y-65094743D01*
X144980887Y-65164208D01*
X145781495Y-64363600D01*
X146140705Y-64363600D01*
X146941313Y-65164208D01*
X147183497Y-65094743D01*
X147370244Y-64571298D01*
X147342462Y-64016232D01*
X147183497Y-63632457D01*
X146941313Y-63562992D01*
X146140705Y-64363600D01*
X145781495Y-64363600D01*
X144980887Y-63562992D01*
X144912820Y-63582515D01*
X144912820Y-62750872D01*
X145168730Y-63007229D01*
X145360827Y-63086995D01*
X145229957Y-63141203D01*
X145160492Y-63383387D01*
X145961100Y-64183995D01*
X146761708Y-63383387D01*
X146692243Y-63141203D01*
X146551782Y-63091091D01*
X146751403Y-63008610D01*
X147144729Y-62615970D01*
X147357857Y-62102700D01*
X147358342Y-61546939D01*
X147146110Y-61033297D01*
X146753470Y-60639971D01*
X146545588Y-60553651D01*
X146751403Y-60468610D01*
X147144729Y-60075970D01*
X147357857Y-59562700D01*
X147358342Y-59006939D01*
X147146110Y-58493297D01*
X146753470Y-58099971D01*
X146240200Y-57886843D01*
X145684439Y-57886358D01*
X145170797Y-58098590D01*
X144912820Y-58356117D01*
X144912820Y-55130872D01*
X145168730Y-55387229D01*
X145682000Y-55600357D01*
X146237761Y-55600842D01*
X146751403Y-55388610D01*
X147144729Y-54995970D01*
X147357857Y-54482700D01*
X147358342Y-53926939D01*
X147146110Y-53413297D01*
X146753470Y-53019971D01*
X146545588Y-52933651D01*
X146751403Y-52848610D01*
X147144729Y-52455970D01*
X147357857Y-51942700D01*
X147358342Y-51386939D01*
X147146110Y-50873297D01*
X146753470Y-50479971D01*
X146545588Y-50393651D01*
X146751403Y-50308610D01*
X147144729Y-49915970D01*
X147357857Y-49402700D01*
X147358342Y-48846939D01*
X147146110Y-48333297D01*
X146753470Y-47939971D01*
X146545588Y-47853651D01*
X146751403Y-47768610D01*
X147144729Y-47375970D01*
X147357857Y-46862700D01*
X147358342Y-46306939D01*
X147146110Y-45793297D01*
X146753470Y-45399971D01*
X146545588Y-45313651D01*
X146751403Y-45228610D01*
X147144729Y-44835970D01*
X147357857Y-44322700D01*
X147358342Y-43766939D01*
X147146110Y-43253297D01*
X146753470Y-42859971D01*
X146545588Y-42773651D01*
X146751403Y-42688610D01*
X147144729Y-42295970D01*
X147357857Y-41782700D01*
X147358342Y-41226939D01*
X147146110Y-40713297D01*
X146850929Y-40417600D01*
X148003800Y-40417600D01*
X148003800Y-78997600D01*
X148003800Y-78997600D01*
G37*
X148003800Y-78997600D02*
X144213800Y-78997600D01*
X143942095Y-79051646D01*
X143711754Y-79205554D01*
X143557846Y-79435895D01*
X143503800Y-79707600D01*
X143503800Y-87497600D01*
X142444492Y-87497600D01*
X142870831Y-87072004D01*
X143103335Y-86512072D01*
X143103864Y-85905788D01*
X142872338Y-85345451D01*
X142464863Y-84937264D01*
X142870831Y-84532004D01*
X143103335Y-83972072D01*
X143103864Y-83365788D01*
X142872338Y-82805451D01*
X142444004Y-82376369D01*
X142417094Y-82365195D01*
X142472191Y-82199796D01*
X141579600Y-81307205D01*
X140687009Y-82199796D01*
X140741953Y-82364738D01*
X140717451Y-82374862D01*
X140288369Y-82803196D01*
X140055865Y-83363128D01*
X140055336Y-83969412D01*
X140286862Y-84529749D01*
X140694337Y-84937936D01*
X140288369Y-85343196D01*
X140055865Y-85903128D01*
X140055336Y-86509412D01*
X140286862Y-87069749D01*
X140713967Y-87497600D01*
X139507892Y-87497600D01*
X136715846Y-84705554D01*
X136485505Y-84551646D01*
X136213800Y-84497600D01*
X106713800Y-84497600D01*
X106442095Y-84551646D01*
X106211754Y-84705554D01*
X103419708Y-87497600D01*
X98237307Y-87497600D01*
X98491403Y-87392610D01*
X98884729Y-86999970D01*
X99097857Y-86486700D01*
X99098342Y-85930939D01*
X98886110Y-85417297D01*
X98550305Y-85080905D01*
X99694274Y-85080905D01*
X99980643Y-85773972D01*
X100510439Y-86304693D01*
X101203005Y-86592272D01*
X101952905Y-86592926D01*
X102645972Y-86306557D01*
X103176693Y-85776761D01*
X103464272Y-85084195D01*
X103464926Y-84334295D01*
X103178557Y-83641228D01*
X102648761Y-83110507D01*
X101956195Y-82822928D01*
X101206295Y-82822274D01*
X100513228Y-83108643D01*
X99982507Y-83638439D01*
X99694928Y-84331005D01*
X99694274Y-85080905D01*
X98550305Y-85080905D01*
X98493470Y-85023971D01*
X98285588Y-84937651D01*
X98491403Y-84852610D01*
X98884729Y-84459970D01*
X99097857Y-83946700D01*
X99098342Y-83390939D01*
X98886110Y-82877297D01*
X98493470Y-82483971D01*
X98285588Y-82397651D01*
X98491403Y-82312610D01*
X98884729Y-81919970D01*
X99097857Y-81406700D01*
X99098308Y-80889565D01*
X140044084Y-80889565D01*
X140069877Y-81495300D01*
X140252061Y-81935133D01*
X140507404Y-82020191D01*
X141399995Y-81127600D01*
X141759205Y-81127600D01*
X142651796Y-82020191D01*
X142907139Y-81935133D01*
X143115116Y-81365635D01*
X143089323Y-80759900D01*
X142907139Y-80320067D01*
X142651796Y-80235009D01*
X141759205Y-81127600D01*
X141399995Y-81127600D01*
X140507404Y-80235009D01*
X140252061Y-80320067D01*
X140044084Y-80889565D01*
X99098308Y-80889565D01*
X99098342Y-80850939D01*
X98886110Y-80337297D01*
X98493470Y-79943971D01*
X98285588Y-79857651D01*
X98491403Y-79772610D01*
X98884729Y-79379970D01*
X99097857Y-78866700D01*
X99098342Y-78310939D01*
X98886110Y-77797297D01*
X98493470Y-77403971D01*
X98285588Y-77317651D01*
X98491403Y-77232610D01*
X98884729Y-76839970D01*
X99097857Y-76326700D01*
X99098342Y-75770939D01*
X98886110Y-75257297D01*
X98493470Y-74863971D01*
X98285588Y-74777651D01*
X98491403Y-74692610D01*
X98884729Y-74299970D01*
X99097857Y-73786700D01*
X99098342Y-73230939D01*
X98886110Y-72717297D01*
X98493470Y-72323971D01*
X98285588Y-72237651D01*
X98491403Y-72152610D01*
X98543020Y-72101084D01*
X99547137Y-73105201D01*
X99793698Y-73269948D01*
X99841952Y-73279546D01*
X100084538Y-73327800D01*
X137784998Y-73327800D01*
X140098250Y-75641052D01*
X140055865Y-75743128D01*
X140055336Y-76349412D01*
X140286862Y-76909749D01*
X140694337Y-77317936D01*
X140288369Y-77723196D01*
X140055865Y-78283128D01*
X140055336Y-78889412D01*
X140286862Y-79449749D01*
X140715196Y-79878831D01*
X140742106Y-79890005D01*
X140687009Y-80055404D01*
X141579600Y-80947995D01*
X142472191Y-80055404D01*
X142417247Y-79890462D01*
X142441749Y-79880338D01*
X142870831Y-79452004D01*
X143103335Y-78892072D01*
X143103864Y-78285788D01*
X143060694Y-78181308D01*
X144640210Y-76601792D01*
X144564343Y-76784500D01*
X144563858Y-77340261D01*
X144776090Y-77853903D01*
X145168730Y-78247229D01*
X145682000Y-78460357D01*
X146237761Y-78460842D01*
X146751403Y-78248610D01*
X147144729Y-77855970D01*
X147357857Y-77342700D01*
X147358342Y-76786939D01*
X147146110Y-76273297D01*
X146753470Y-75879971D01*
X146545588Y-75793651D01*
X146751403Y-75708610D01*
X147144729Y-75315970D01*
X147357857Y-74802700D01*
X147358342Y-74246939D01*
X147146110Y-73733297D01*
X146753470Y-73339971D01*
X146545588Y-73253651D01*
X146751403Y-73168610D01*
X147144729Y-72775970D01*
X147357857Y-72262700D01*
X147358342Y-71706939D01*
X147146110Y-71193297D01*
X146753470Y-70799971D01*
X146545588Y-70713651D01*
X146751403Y-70628610D01*
X147144729Y-70235970D01*
X147357857Y-69722700D01*
X147358342Y-69166939D01*
X147146110Y-68653297D01*
X146753470Y-68259971D01*
X146545588Y-68173651D01*
X146751403Y-68088610D01*
X147144729Y-67695970D01*
X147357857Y-67182700D01*
X147358342Y-66626939D01*
X147146110Y-66113297D01*
X146753470Y-65719971D01*
X146561373Y-65640205D01*
X146692243Y-65585997D01*
X146761708Y-65343813D01*
X145961100Y-64543205D01*
X145160492Y-65343813D01*
X145229957Y-65585997D01*
X145370418Y-65636109D01*
X145170797Y-65718590D01*
X144777471Y-66111230D01*
X144564343Y-66624500D01*
X144563858Y-67180261D01*
X144776090Y-67693903D01*
X145168730Y-68087229D01*
X145376612Y-68173549D01*
X145170797Y-68258590D01*
X144777471Y-68651230D01*
X144564343Y-69164500D01*
X144563858Y-69720261D01*
X144776090Y-70233903D01*
X145168730Y-70627229D01*
X145376612Y-70713549D01*
X145170797Y-70798590D01*
X144777471Y-71191230D01*
X144564343Y-71704500D01*
X144563858Y-72260261D01*
X144776090Y-72773903D01*
X145168730Y-73167229D01*
X145376612Y-73253549D01*
X145170797Y-73338590D01*
X144777471Y-73731230D01*
X144564343Y-74244500D01*
X144564095Y-74528303D01*
X143103652Y-75988746D01*
X143103864Y-75745788D01*
X142872338Y-75185451D01*
X142464863Y-74777264D01*
X142870831Y-74372004D01*
X143103335Y-73812072D01*
X143103864Y-73205788D01*
X142872338Y-72645451D01*
X142464863Y-72237264D01*
X142870831Y-71832004D01*
X143103335Y-71272072D01*
X143103864Y-70665788D01*
X142872338Y-70105451D01*
X142464863Y-69697264D01*
X142870831Y-69292004D01*
X143103335Y-68732072D01*
X143103864Y-68125788D01*
X143060694Y-68021309D01*
X143666401Y-67415602D01*
X143823598Y-67180338D01*
X143831148Y-67169039D01*
X143889000Y-66878200D01*
X143889000Y-65846802D01*
X144690221Y-65045581D01*
X144707579Y-65019603D01*
X144738703Y-65094743D01*
X144980887Y-65164208D01*
X145781495Y-64363600D01*
X146140705Y-64363600D01*
X146941313Y-65164208D01*
X147183497Y-65094743D01*
X147370244Y-64571298D01*
X147342462Y-64016232D01*
X147183497Y-63632457D01*
X146941313Y-63562992D01*
X146140705Y-64363600D01*
X145781495Y-64363600D01*
X144980887Y-63562992D01*
X144912820Y-63582515D01*
X144912820Y-62750872D01*
X145168730Y-63007229D01*
X145360827Y-63086995D01*
X145229957Y-63141203D01*
X145160492Y-63383387D01*
X145961100Y-64183995D01*
X146761708Y-63383387D01*
X146692243Y-63141203D01*
X146551782Y-63091091D01*
X146751403Y-63008610D01*
X147144729Y-62615970D01*
X147357857Y-62102700D01*
X147358342Y-61546939D01*
X147146110Y-61033297D01*
X146753470Y-60639971D01*
X146545588Y-60553651D01*
X146751403Y-60468610D01*
X147144729Y-60075970D01*
X147357857Y-59562700D01*
X147358342Y-59006939D01*
X147146110Y-58493297D01*
X146753470Y-58099971D01*
X146240200Y-57886843D01*
X145684439Y-57886358D01*
X145170797Y-58098590D01*
X144912820Y-58356117D01*
X144912820Y-55130872D01*
X145168730Y-55387229D01*
X145682000Y-55600357D01*
X146237761Y-55600842D01*
X146751403Y-55388610D01*
X147144729Y-54995970D01*
X147357857Y-54482700D01*
X147358342Y-53926939D01*
X147146110Y-53413297D01*
X146753470Y-53019971D01*
X146545588Y-52933651D01*
X146751403Y-52848610D01*
X147144729Y-52455970D01*
X147357857Y-51942700D01*
X147358342Y-51386939D01*
X147146110Y-50873297D01*
X146753470Y-50479971D01*
X146545588Y-50393651D01*
X146751403Y-50308610D01*
X147144729Y-49915970D01*
X147357857Y-49402700D01*
X147358342Y-48846939D01*
X147146110Y-48333297D01*
X146753470Y-47939971D01*
X146545588Y-47853651D01*
X146751403Y-47768610D01*
X147144729Y-47375970D01*
X147357857Y-46862700D01*
X147358342Y-46306939D01*
X147146110Y-45793297D01*
X146753470Y-45399971D01*
X146545588Y-45313651D01*
X146751403Y-45228610D01*
X147144729Y-44835970D01*
X147357857Y-44322700D01*
X147358342Y-43766939D01*
X147146110Y-43253297D01*
X146753470Y-42859971D01*
X146545588Y-42773651D01*
X146751403Y-42688610D01*
X147144729Y-42295970D01*
X147357857Y-41782700D01*
X147358342Y-41226939D01*
X147146110Y-40713297D01*
X146850929Y-40417600D01*
X148003800Y-40417600D01*
X148003800Y-78997600D01*
G36*
X110503800Y-46746190D02*
X106563129Y-48497600D01*
X104713800Y-48497600D01*
X104442095Y-48551646D01*
X104211754Y-48705554D01*
X104057846Y-48935895D01*
X104003800Y-49207600D01*
X104003800Y-69207600D01*
X104057846Y-69479305D01*
X104211754Y-69709646D01*
X104442095Y-69863554D01*
X104713800Y-69917600D01*
X135713800Y-69917600D01*
X135985505Y-69863554D01*
X136215846Y-69709646D01*
X136369754Y-69479305D01*
X136423800Y-69207600D01*
X136423800Y-49478865D01*
X144531248Y-40417600D01*
X145071614Y-40417600D01*
X144777471Y-40711230D01*
X144564343Y-41224500D01*
X144563858Y-41780261D01*
X144776090Y-42293903D01*
X145168730Y-42687229D01*
X145376612Y-42773549D01*
X145170797Y-42858590D01*
X144777471Y-43251230D01*
X144564343Y-43764500D01*
X144563858Y-44320261D01*
X144776090Y-44833903D01*
X145168730Y-45227229D01*
X145376612Y-45313549D01*
X145170797Y-45398590D01*
X144777471Y-45791230D01*
X144564343Y-46304500D01*
X144563858Y-46860261D01*
X144577243Y-46892655D01*
X143103375Y-48366523D01*
X143103864Y-47805788D01*
X142872338Y-47245451D01*
X142444004Y-46816369D01*
X141884072Y-46583865D01*
X141277788Y-46583336D01*
X140717451Y-46814862D01*
X140288369Y-47243196D01*
X140055865Y-47803128D01*
X140055336Y-48409412D01*
X140286862Y-48969749D01*
X140694337Y-49377936D01*
X140288369Y-49783196D01*
X140055865Y-50343128D01*
X140055336Y-50949412D01*
X140286862Y-51509749D01*
X140694337Y-51917936D01*
X140288369Y-52323196D01*
X140055865Y-52883128D01*
X140055336Y-53489412D01*
X140286862Y-54049749D01*
X140694337Y-54457936D01*
X140288369Y-54863196D01*
X140055865Y-55423128D01*
X140055336Y-56029412D01*
X140286862Y-56589749D01*
X140694337Y-56997936D01*
X140288369Y-57403196D01*
X140055865Y-57963128D01*
X140055336Y-58569412D01*
X140286862Y-59129749D01*
X140694337Y-59537936D01*
X140288369Y-59943196D01*
X140055865Y-60503128D01*
X140055336Y-61109412D01*
X140286862Y-61669749D01*
X140694337Y-62077936D01*
X140288369Y-62483196D01*
X140055865Y-63043128D01*
X140055336Y-63649412D01*
X140286862Y-64209749D01*
X140694337Y-64617936D01*
X140288369Y-65023196D01*
X140055865Y-65583128D01*
X140055336Y-66189412D01*
X140286862Y-66749749D01*
X140694337Y-67157936D01*
X140288369Y-67563196D01*
X140055865Y-68123128D01*
X140055336Y-68729412D01*
X140286862Y-69289749D01*
X140694337Y-69697936D01*
X140288369Y-70103196D01*
X140097359Y-70563200D01*
X103451502Y-70563200D01*
X99085283Y-66196981D01*
X99097857Y-66166700D01*
X99098342Y-65610939D01*
X98886110Y-65097297D01*
X98493470Y-64703971D01*
X98285588Y-64617651D01*
X98491403Y-64532610D01*
X98884729Y-64139970D01*
X99097857Y-63626700D01*
X99098342Y-63070939D01*
X99084957Y-63038545D01*
X99975512Y-62147990D01*
X100140259Y-61901428D01*
X100198111Y-61610589D01*
X100198111Y-50871820D01*
X100510439Y-51184693D01*
X101203005Y-51472272D01*
X101952905Y-51472926D01*
X102645972Y-51186557D01*
X103176693Y-50656761D01*
X103464272Y-49964195D01*
X103464926Y-49214295D01*
X103178557Y-48521228D01*
X102648761Y-47990507D01*
X101956195Y-47702928D01*
X101206295Y-47702274D01*
X100513228Y-47988643D01*
X100198111Y-48303211D01*
X100198111Y-48000091D01*
X103532419Y-44665783D01*
X103562700Y-44678357D01*
X104118461Y-44678842D01*
X104632103Y-44466610D01*
X104841821Y-44257258D01*
X105049430Y-44465229D01*
X105562700Y-44678357D01*
X106118461Y-44678842D01*
X106632103Y-44466610D01*
X106837257Y-44261813D01*
X107041192Y-44261813D01*
X107110657Y-44503997D01*
X107634102Y-44690744D01*
X108189168Y-44662962D01*
X108572943Y-44503997D01*
X108642408Y-44261813D01*
X107841800Y-43461205D01*
X107041192Y-44261813D01*
X106837257Y-44261813D01*
X107025429Y-44073970D01*
X107135922Y-43807873D01*
X107662195Y-43281600D01*
X108021405Y-43281600D01*
X108822013Y-44082208D01*
X109064197Y-44012743D01*
X109250944Y-43489298D01*
X109223162Y-42934232D01*
X109064197Y-42550457D01*
X108822013Y-42480992D01*
X108021405Y-43281600D01*
X107662195Y-43281600D01*
X107135893Y-42755298D01*
X107026810Y-42491297D01*
X106837232Y-42301387D01*
X107041192Y-42301387D01*
X107841800Y-43101995D01*
X108642408Y-42301387D01*
X108572943Y-42059203D01*
X108049498Y-41872456D01*
X107494432Y-41900238D01*
X107110657Y-42059203D01*
X107041192Y-42301387D01*
X106837232Y-42301387D01*
X106634170Y-42097971D01*
X106120900Y-41884843D01*
X105565139Y-41884358D01*
X105051497Y-42096590D01*
X104841779Y-42305942D01*
X104634170Y-42097971D01*
X104120900Y-41884843D01*
X103565139Y-41884358D01*
X103051497Y-42096590D01*
X102841779Y-42305942D01*
X102634170Y-42097971D01*
X102120900Y-41884843D01*
X101565139Y-41884358D01*
X101051497Y-42096590D01*
X100658171Y-42489230D01*
X100445043Y-43002500D01*
X100444558Y-43558261D01*
X100457943Y-43590655D01*
X98570981Y-45477617D01*
X98493470Y-45399971D01*
X98285588Y-45313651D01*
X98491403Y-45228610D01*
X98884729Y-44835970D01*
X99097857Y-44322700D01*
X99098342Y-43766939D01*
X98886110Y-43253297D01*
X98493470Y-42859971D01*
X98285588Y-42773651D01*
X98491403Y-42688610D01*
X98884729Y-42295970D01*
X99097857Y-41782700D01*
X99098342Y-41226939D01*
X98886110Y-40713297D01*
X98590929Y-40417600D01*
X110503800Y-40417600D01*
X110503800Y-46746190D01*
X110503800Y-46746190D01*
G37*
X110503800Y-46746190D02*
X106563129Y-48497600D01*
X104713800Y-48497600D01*
X104442095Y-48551646D01*
X104211754Y-48705554D01*
X104057846Y-48935895D01*
X104003800Y-49207600D01*
X104003800Y-69207600D01*
X104057846Y-69479305D01*
X104211754Y-69709646D01*
X104442095Y-69863554D01*
X104713800Y-69917600D01*
X135713800Y-69917600D01*
X135985505Y-69863554D01*
X136215846Y-69709646D01*
X136369754Y-69479305D01*
X136423800Y-69207600D01*
X136423800Y-49478865D01*
X144531248Y-40417600D01*
X145071614Y-40417600D01*
X144777471Y-40711230D01*
X144564343Y-41224500D01*
X144563858Y-41780261D01*
X144776090Y-42293903D01*
X145168730Y-42687229D01*
X145376612Y-42773549D01*
X145170797Y-42858590D01*
X144777471Y-43251230D01*
X144564343Y-43764500D01*
X144563858Y-44320261D01*
X144776090Y-44833903D01*
X145168730Y-45227229D01*
X145376612Y-45313549D01*
X145170797Y-45398590D01*
X144777471Y-45791230D01*
X144564343Y-46304500D01*
X144563858Y-46860261D01*
X144577243Y-46892655D01*
X143103375Y-48366523D01*
X143103864Y-47805788D01*
X142872338Y-47245451D01*
X142444004Y-46816369D01*
X141884072Y-46583865D01*
X141277788Y-46583336D01*
X140717451Y-46814862D01*
X140288369Y-47243196D01*
X140055865Y-47803128D01*
X140055336Y-48409412D01*
X140286862Y-48969749D01*
X140694337Y-49377936D01*
X140288369Y-49783196D01*
X140055865Y-50343128D01*
X140055336Y-50949412D01*
X140286862Y-51509749D01*
X140694337Y-51917936D01*
X140288369Y-52323196D01*
X140055865Y-52883128D01*
X140055336Y-53489412D01*
X140286862Y-54049749D01*
X140694337Y-54457936D01*
X140288369Y-54863196D01*
X140055865Y-55423128D01*
X140055336Y-56029412D01*
X140286862Y-56589749D01*
X140694337Y-56997936D01*
X140288369Y-57403196D01*
X140055865Y-57963128D01*
X140055336Y-58569412D01*
X140286862Y-59129749D01*
X140694337Y-59537936D01*
X140288369Y-59943196D01*
X140055865Y-60503128D01*
X140055336Y-61109412D01*
X140286862Y-61669749D01*
X140694337Y-62077936D01*
X140288369Y-62483196D01*
X140055865Y-63043128D01*
X140055336Y-63649412D01*
X140286862Y-64209749D01*
X140694337Y-64617936D01*
X140288369Y-65023196D01*
X140055865Y-65583128D01*
X140055336Y-66189412D01*
X140286862Y-66749749D01*
X140694337Y-67157936D01*
X140288369Y-67563196D01*
X140055865Y-68123128D01*
X140055336Y-68729412D01*
X140286862Y-69289749D01*
X140694337Y-69697936D01*
X140288369Y-70103196D01*
X140097359Y-70563200D01*
X103451502Y-70563200D01*
X99085283Y-66196981D01*
X99097857Y-66166700D01*
X99098342Y-65610939D01*
X98886110Y-65097297D01*
X98493470Y-64703971D01*
X98285588Y-64617651D01*
X98491403Y-64532610D01*
X98884729Y-64139970D01*
X99097857Y-63626700D01*
X99098342Y-63070939D01*
X99084957Y-63038545D01*
X99975512Y-62147990D01*
X100140259Y-61901428D01*
X100198111Y-61610589D01*
X100198111Y-50871820D01*
X100510439Y-51184693D01*
X101203005Y-51472272D01*
X101952905Y-51472926D01*
X102645972Y-51186557D01*
X103176693Y-50656761D01*
X103464272Y-49964195D01*
X103464926Y-49214295D01*
X103178557Y-48521228D01*
X102648761Y-47990507D01*
X101956195Y-47702928D01*
X101206295Y-47702274D01*
X100513228Y-47988643D01*
X100198111Y-48303211D01*
X100198111Y-48000091D01*
X103532419Y-44665783D01*
X103562700Y-44678357D01*
X104118461Y-44678842D01*
X104632103Y-44466610D01*
X104841821Y-44257258D01*
X105049430Y-44465229D01*
X105562700Y-44678357D01*
X106118461Y-44678842D01*
X106632103Y-44466610D01*
X106837257Y-44261813D01*
X107041192Y-44261813D01*
X107110657Y-44503997D01*
X107634102Y-44690744D01*
X108189168Y-44662962D01*
X108572943Y-44503997D01*
X108642408Y-44261813D01*
X107841800Y-43461205D01*
X107041192Y-44261813D01*
X106837257Y-44261813D01*
X107025429Y-44073970D01*
X107135922Y-43807873D01*
X107662195Y-43281600D01*
X108021405Y-43281600D01*
X108822013Y-44082208D01*
X109064197Y-44012743D01*
X109250944Y-43489298D01*
X109223162Y-42934232D01*
X109064197Y-42550457D01*
X108822013Y-42480992D01*
X108021405Y-43281600D01*
X107662195Y-43281600D01*
X107135893Y-42755298D01*
X107026810Y-42491297D01*
X106837232Y-42301387D01*
X107041192Y-42301387D01*
X107841800Y-43101995D01*
X108642408Y-42301387D01*
X108572943Y-42059203D01*
X108049498Y-41872456D01*
X107494432Y-41900238D01*
X107110657Y-42059203D01*
X107041192Y-42301387D01*
X106837232Y-42301387D01*
X106634170Y-42097971D01*
X106120900Y-41884843D01*
X105565139Y-41884358D01*
X105051497Y-42096590D01*
X104841779Y-42305942D01*
X104634170Y-42097971D01*
X104120900Y-41884843D01*
X103565139Y-41884358D01*
X103051497Y-42096590D01*
X102841779Y-42305942D01*
X102634170Y-42097971D01*
X102120900Y-41884843D01*
X101565139Y-41884358D01*
X101051497Y-42096590D01*
X100658171Y-42489230D01*
X100445043Y-43002500D01*
X100444558Y-43558261D01*
X100457943Y-43590655D01*
X98570981Y-45477617D01*
X98493470Y-45399971D01*
X98285588Y-45313651D01*
X98491403Y-45228610D01*
X98884729Y-44835970D01*
X99097857Y-44322700D01*
X99098342Y-43766939D01*
X98886110Y-43253297D01*
X98493470Y-42859971D01*
X98285588Y-42773651D01*
X98491403Y-42688610D01*
X98884729Y-42295970D01*
X99097857Y-41782700D01*
X99098342Y-41226939D01*
X98886110Y-40713297D01*
X98590929Y-40417600D01*
X110503800Y-40417600D01*
X110503800Y-46746190D01*
M02*
