G04 #@! TF.FileFunction,Legend,Top*
%FSLAX46Y46*%
G04 Gerber Fmt 4.6, Leading zero omitted, Abs format (unit mm)*
G04 Created by KiCad (PCBNEW 4.0.2-stable) date Monday, April 10, 2017 'PMt' 01:57:30 PM*
%MOMM*%
G01*
G04 APERTURE LIST*
%ADD10C,0.100000*%
%ADD11C,0.300000*%
%ADD12C,0.120000*%
%ADD13C,0.150000*%
%ADD14C,0.304800*%
%ADD15C,1.924000*%
%ADD16C,2.178000*%
%ADD17C,2.900000*%
G04 APERTURE END LIST*
D10*
D11*
X112606657Y-79314743D02*
X112820943Y-79386171D01*
X113178086Y-79386171D01*
X113320943Y-79314743D01*
X113392372Y-79243314D01*
X113463800Y-79100457D01*
X113463800Y-78957600D01*
X113392372Y-78814743D01*
X113320943Y-78743314D01*
X113178086Y-78671886D01*
X112892372Y-78600457D01*
X112749514Y-78529029D01*
X112678086Y-78457600D01*
X112606657Y-78314743D01*
X112606657Y-78171886D01*
X112678086Y-78029029D01*
X112749514Y-77957600D01*
X112892372Y-77886171D01*
X113249514Y-77886171D01*
X113463800Y-77957600D01*
X113892371Y-77886171D02*
X114749514Y-77886171D01*
X114320943Y-79386171D02*
X114320943Y-77886171D01*
X115249514Y-78600457D02*
X115749514Y-78600457D01*
X115963800Y-79386171D02*
X115249514Y-79386171D01*
X115249514Y-77886171D01*
X115963800Y-77886171D01*
X116606657Y-79386171D02*
X116606657Y-77886171D01*
X117106657Y-78957600D01*
X117606657Y-77886171D01*
X117606657Y-79386171D01*
X118320943Y-79386171D02*
X118320943Y-77886171D01*
X118892371Y-77886171D01*
X119035229Y-77957600D01*
X119106657Y-78029029D01*
X119178086Y-78171886D01*
X119178086Y-78386171D01*
X119106657Y-78529029D01*
X119035229Y-78600457D01*
X118892371Y-78671886D01*
X118320943Y-78671886D01*
X119820943Y-79386171D02*
X119820943Y-77886171D01*
X120392371Y-77886171D01*
X120535229Y-77957600D01*
X120606657Y-78029029D01*
X120678086Y-78171886D01*
X120678086Y-78386171D01*
X120606657Y-78529029D01*
X120535229Y-78600457D01*
X120392371Y-78671886D01*
X119820943Y-78671886D01*
X122392371Y-77814743D02*
X121106657Y-79743314D01*
X122678086Y-77886171D02*
X123535229Y-77886171D01*
X123106658Y-79386171D02*
X123106658Y-77886171D01*
X124035229Y-79386171D02*
X124035229Y-77886171D01*
X124678086Y-79386171D02*
X124678086Y-78600457D01*
X124606657Y-78457600D01*
X124463800Y-78386171D01*
X124249515Y-78386171D01*
X124106657Y-78457600D01*
X124035229Y-78529029D01*
X125963800Y-79314743D02*
X125820943Y-79386171D01*
X125535229Y-79386171D01*
X125392372Y-79314743D01*
X125320943Y-79171886D01*
X125320943Y-78600457D01*
X125392372Y-78457600D01*
X125535229Y-78386171D01*
X125820943Y-78386171D01*
X125963800Y-78457600D01*
X126035229Y-78600457D01*
X126035229Y-78743314D01*
X125320943Y-78886171D01*
X126892372Y-79386171D02*
X126749514Y-79314743D01*
X126678086Y-79243314D01*
X126606657Y-79100457D01*
X126606657Y-78671886D01*
X126678086Y-78529029D01*
X126749514Y-78457600D01*
X126892372Y-78386171D01*
X127106657Y-78386171D01*
X127249514Y-78457600D01*
X127320943Y-78529029D01*
X127392372Y-78671886D01*
X127392372Y-79100457D01*
X127320943Y-79243314D01*
X127249514Y-79314743D01*
X127106657Y-79386171D01*
X126892372Y-79386171D01*
X128035229Y-79386171D02*
X128035229Y-78386171D01*
X128035229Y-78671886D02*
X128106657Y-78529029D01*
X128178086Y-78457600D01*
X128320943Y-78386171D01*
X128463800Y-78386171D01*
X129535228Y-79314743D02*
X129392371Y-79386171D01*
X129106657Y-79386171D01*
X128963800Y-79314743D01*
X128892371Y-79171886D01*
X128892371Y-78600457D01*
X128963800Y-78457600D01*
X129106657Y-78386171D01*
X129392371Y-78386171D01*
X129535228Y-78457600D01*
X129606657Y-78600457D01*
X129606657Y-78743314D01*
X128892371Y-78886171D01*
X130249514Y-78386171D02*
X130249514Y-79386171D01*
X130249514Y-78529029D02*
X130320942Y-78457600D01*
X130463800Y-78386171D01*
X130678085Y-78386171D01*
X130820942Y-78457600D01*
X130892371Y-78600457D01*
X130892371Y-79386171D01*
X131392371Y-78386171D02*
X131963800Y-78386171D01*
X131606657Y-77886171D02*
X131606657Y-79171886D01*
X131678085Y-79314743D01*
X131820943Y-79386171D01*
X131963800Y-79386171D01*
X104106658Y-74957600D02*
X104820944Y-74957600D01*
X103963801Y-75386171D02*
X104463801Y-73886171D01*
X104963801Y-75386171D01*
X106106658Y-75386171D02*
X106106658Y-73886171D01*
X106106658Y-75314743D02*
X105963801Y-75386171D01*
X105678087Y-75386171D01*
X105535229Y-75314743D01*
X105463801Y-75243314D01*
X105392372Y-75100457D01*
X105392372Y-74671886D01*
X105463801Y-74529029D01*
X105535229Y-74457600D01*
X105678087Y-74386171D01*
X105963801Y-74386171D01*
X106106658Y-74457600D01*
X107463801Y-75386171D02*
X107463801Y-74600457D01*
X107392372Y-74457600D01*
X107249515Y-74386171D01*
X106963801Y-74386171D01*
X106820944Y-74457600D01*
X107463801Y-75314743D02*
X107320944Y-75386171D01*
X106963801Y-75386171D01*
X106820944Y-75314743D01*
X106749515Y-75171886D01*
X106749515Y-75029029D01*
X106820944Y-74886171D01*
X106963801Y-74814743D01*
X107320944Y-74814743D01*
X107463801Y-74743314D01*
X107963801Y-74386171D02*
X108535230Y-74386171D01*
X108178087Y-75386171D02*
X108178087Y-74100457D01*
X108249515Y-73957600D01*
X108392373Y-73886171D01*
X108535230Y-73886171D01*
X109035230Y-75386171D02*
X109035230Y-74386171D01*
X109035230Y-74671886D02*
X109106658Y-74529029D01*
X109178087Y-74457600D01*
X109320944Y-74386171D01*
X109463801Y-74386171D01*
X110606658Y-74386171D02*
X110606658Y-75386171D01*
X109963801Y-74386171D02*
X109963801Y-75171886D01*
X110035229Y-75314743D01*
X110178087Y-75386171D01*
X110392372Y-75386171D01*
X110535229Y-75314743D01*
X110606658Y-75243314D01*
X111320944Y-75386171D02*
X111320944Y-74386171D01*
X111320944Y-73886171D02*
X111249515Y-73957600D01*
X111320944Y-74029029D01*
X111392372Y-73957600D01*
X111320944Y-73886171D01*
X111320944Y-74029029D01*
X111820944Y-74386171D02*
X112392373Y-74386171D01*
X112035230Y-73886171D02*
X112035230Y-75171886D01*
X112106658Y-75314743D01*
X112249516Y-75386171D01*
X112392373Y-75386171D01*
X114535230Y-74600457D02*
X114035230Y-74600457D01*
X114035230Y-75386171D02*
X114035230Y-73886171D01*
X114749516Y-73886171D01*
X115606658Y-73886171D02*
X115892372Y-73886171D01*
X116035230Y-73957600D01*
X116178087Y-74100457D01*
X116249515Y-74386171D01*
X116249515Y-74886171D01*
X116178087Y-75171886D01*
X116035230Y-75314743D01*
X115892372Y-75386171D01*
X115606658Y-75386171D01*
X115463801Y-75314743D01*
X115320944Y-75171886D01*
X115249515Y-74886171D01*
X115249515Y-74386171D01*
X115320944Y-74100457D01*
X115463801Y-73957600D01*
X115606658Y-73886171D01*
X116892373Y-75386171D02*
X116892373Y-73886171D01*
X117749516Y-75386171D01*
X117749516Y-73886171D01*
X118392373Y-74957600D02*
X119106659Y-74957600D01*
X118249516Y-75386171D02*
X118749516Y-73886171D01*
X119249516Y-75386171D01*
X121106659Y-74529029D02*
X120963801Y-74457600D01*
X120892373Y-74386171D01*
X120820944Y-74243314D01*
X120820944Y-74171886D01*
X120892373Y-74029029D01*
X120963801Y-73957600D01*
X121106659Y-73886171D01*
X121392373Y-73886171D01*
X121535230Y-73957600D01*
X121606659Y-74029029D01*
X121678087Y-74171886D01*
X121678087Y-74243314D01*
X121606659Y-74386171D01*
X121535230Y-74457600D01*
X121392373Y-74529029D01*
X121106659Y-74529029D01*
X120963801Y-74600457D01*
X120892373Y-74671886D01*
X120820944Y-74814743D01*
X120820944Y-75100457D01*
X120892373Y-75243314D01*
X120963801Y-75314743D01*
X121106659Y-75386171D01*
X121392373Y-75386171D01*
X121535230Y-75314743D01*
X121606659Y-75243314D01*
X121678087Y-75100457D01*
X121678087Y-74814743D01*
X121606659Y-74671886D01*
X121535230Y-74600457D01*
X121392373Y-74529029D01*
X122606658Y-73886171D02*
X122749515Y-73886171D01*
X122892372Y-73957600D01*
X122963801Y-74029029D01*
X123035230Y-74171886D01*
X123106658Y-74457600D01*
X123106658Y-74814743D01*
X123035230Y-75100457D01*
X122963801Y-75243314D01*
X122892372Y-75314743D01*
X122749515Y-75386171D01*
X122606658Y-75386171D01*
X122463801Y-75314743D01*
X122392372Y-75243314D01*
X122320944Y-75100457D01*
X122249515Y-74814743D01*
X122249515Y-74457600D01*
X122320944Y-74171886D01*
X122392372Y-74029029D01*
X122463801Y-73957600D01*
X122606658Y-73886171D01*
X123963801Y-74529029D02*
X123820943Y-74457600D01*
X123749515Y-74386171D01*
X123678086Y-74243314D01*
X123678086Y-74171886D01*
X123749515Y-74029029D01*
X123820943Y-73957600D01*
X123963801Y-73886171D01*
X124249515Y-73886171D01*
X124392372Y-73957600D01*
X124463801Y-74029029D01*
X124535229Y-74171886D01*
X124535229Y-74243314D01*
X124463801Y-74386171D01*
X124392372Y-74457600D01*
X124249515Y-74529029D01*
X123963801Y-74529029D01*
X123820943Y-74600457D01*
X123749515Y-74671886D01*
X123678086Y-74814743D01*
X123678086Y-75100457D01*
X123749515Y-75243314D01*
X123820943Y-75314743D01*
X123963801Y-75386171D01*
X124249515Y-75386171D01*
X124392372Y-75314743D01*
X124463801Y-75243314D01*
X124535229Y-75100457D01*
X124535229Y-74814743D01*
X124463801Y-74671886D01*
X124392372Y-74600457D01*
X124249515Y-74529029D01*
X127106657Y-73957600D02*
X126963800Y-73886171D01*
X126749514Y-73886171D01*
X126535229Y-73957600D01*
X126392371Y-74100457D01*
X126320943Y-74243314D01*
X126249514Y-74529029D01*
X126249514Y-74743314D01*
X126320943Y-75029029D01*
X126392371Y-75171886D01*
X126535229Y-75314743D01*
X126749514Y-75386171D01*
X126892371Y-75386171D01*
X127106657Y-75314743D01*
X127178086Y-75243314D01*
X127178086Y-74743314D01*
X126892371Y-74743314D01*
X127749514Y-75314743D02*
X127963800Y-75386171D01*
X128320943Y-75386171D01*
X128463800Y-75314743D01*
X128535229Y-75243314D01*
X128606657Y-75100457D01*
X128606657Y-74957600D01*
X128535229Y-74814743D01*
X128463800Y-74743314D01*
X128320943Y-74671886D01*
X128035229Y-74600457D01*
X127892371Y-74529029D01*
X127820943Y-74457600D01*
X127749514Y-74314743D01*
X127749514Y-74171886D01*
X127820943Y-74029029D01*
X127892371Y-73957600D01*
X128035229Y-73886171D01*
X128392371Y-73886171D01*
X128606657Y-73957600D01*
X129249514Y-75386171D02*
X129249514Y-73886171D01*
X129749514Y-74957600D01*
X130249514Y-73886171D01*
X130249514Y-75386171D01*
X132035228Y-73814743D02*
X130749514Y-75743314D01*
X133320943Y-73957600D02*
X133178086Y-73886171D01*
X132963800Y-73886171D01*
X132749515Y-73957600D01*
X132606657Y-74100457D01*
X132535229Y-74243314D01*
X132463800Y-74529029D01*
X132463800Y-74743314D01*
X132535229Y-75029029D01*
X132606657Y-75171886D01*
X132749515Y-75314743D01*
X132963800Y-75386171D01*
X133106657Y-75386171D01*
X133320943Y-75314743D01*
X133392372Y-75243314D01*
X133392372Y-74743314D01*
X133106657Y-74743314D01*
X134035229Y-75386171D02*
X134035229Y-73886171D01*
X134606657Y-73886171D01*
X134749515Y-73957600D01*
X134820943Y-74029029D01*
X134892372Y-74171886D01*
X134892372Y-74386171D01*
X134820943Y-74529029D01*
X134749515Y-74600457D01*
X134606657Y-74671886D01*
X134035229Y-74671886D01*
X135463800Y-75314743D02*
X135678086Y-75386171D01*
X136035229Y-75386171D01*
X136178086Y-75314743D01*
X136249515Y-75243314D01*
X136320943Y-75100457D01*
X136320943Y-74957600D01*
X136249515Y-74814743D01*
X136178086Y-74743314D01*
X136035229Y-74671886D01*
X135749515Y-74600457D01*
X135606657Y-74529029D01*
X135535229Y-74457600D01*
X135463800Y-74314743D01*
X135463800Y-74171886D01*
X135535229Y-74029029D01*
X135606657Y-73957600D01*
X135749515Y-73886171D01*
X136106657Y-73886171D01*
X136320943Y-73957600D01*
D12*
X106841800Y-46581600D02*
X107441800Y-46581600D01*
X102241800Y-46581600D02*
X102841800Y-46581600D01*
X99341800Y-40731600D02*
X110391800Y-40731600D01*
X99341800Y-46581600D02*
X99341800Y-40731600D01*
X103091800Y-46581600D02*
X106591800Y-46581600D01*
X110391800Y-46581600D02*
X110391800Y-40731600D01*
X99341800Y-46581600D02*
X101991800Y-46581600D01*
X107741800Y-46581600D02*
X110391800Y-46581600D01*
D13*
X131079600Y-88187600D02*
X137079600Y-88187600D01*
X120079600Y-88187600D02*
X127079600Y-88187600D01*
X105079600Y-88187600D02*
X113079600Y-88187600D01*
X135079600Y-68087600D02*
X135079600Y-50087600D01*
X105079600Y-68087600D02*
X135079600Y-68087600D01*
X105079600Y-50087600D02*
X105079600Y-68087600D01*
X135079600Y-50087600D02*
X105079600Y-50087600D01*
X143079600Y-47107600D02*
X143079600Y-87207600D01*
X99079600Y-47107600D02*
X143079600Y-47107600D01*
X99079600Y-87207600D02*
X99079600Y-47107600D01*
X143079600Y-87207600D02*
X99079600Y-87207600D01*
D14*
X120348829Y-97263857D02*
X120566543Y-97336429D01*
X120929400Y-97336429D01*
X121074543Y-97263857D01*
X121147114Y-97191286D01*
X121219686Y-97046143D01*
X121219686Y-96901000D01*
X121147114Y-96755857D01*
X121074543Y-96683286D01*
X120929400Y-96610714D01*
X120639114Y-96538143D01*
X120493972Y-96465571D01*
X120421400Y-96393000D01*
X120348829Y-96247857D01*
X120348829Y-96102714D01*
X120421400Y-95957571D01*
X120493972Y-95885000D01*
X120639114Y-95812429D01*
X121001972Y-95812429D01*
X121219686Y-95885000D01*
X121872829Y-97336429D02*
X121872829Y-95812429D01*
X121872829Y-96538143D02*
X122743686Y-96538143D01*
X122743686Y-97336429D02*
X122743686Y-95812429D01*
X123469400Y-97336429D02*
X123469400Y-95812429D01*
X124195114Y-96538143D02*
X124703114Y-96538143D01*
X124920828Y-97336429D02*
X124195114Y-97336429D01*
X124195114Y-95812429D01*
X124920828Y-95812429D01*
X126299685Y-97336429D02*
X125573971Y-97336429D01*
X125573971Y-95812429D01*
X126807685Y-97336429D02*
X126807685Y-95812429D01*
X127170542Y-95812429D01*
X127388257Y-95885000D01*
X127533399Y-96030143D01*
X127605971Y-96175286D01*
X127678542Y-96465571D01*
X127678542Y-96683286D01*
X127605971Y-96973571D01*
X127533399Y-97118714D01*
X127388257Y-97263857D01*
X127170542Y-97336429D01*
X126807685Y-97336429D01*
X129129971Y-97336429D02*
X128259114Y-97336429D01*
X128694542Y-97336429D02*
X128694542Y-95812429D01*
X128549399Y-96030143D01*
X128404257Y-96175286D01*
X128259114Y-96247857D01*
D13*
X103782905Y-45664381D02*
X103782905Y-44664381D01*
X104163858Y-44664381D01*
X104259096Y-44712000D01*
X104306715Y-44759619D01*
X104354334Y-44854857D01*
X104354334Y-44997714D01*
X104306715Y-45092952D01*
X104259096Y-45140571D01*
X104163858Y-45188190D01*
X103782905Y-45188190D01*
X104735286Y-44759619D02*
X104782905Y-44712000D01*
X104878143Y-44664381D01*
X105116239Y-44664381D01*
X105211477Y-44712000D01*
X105259096Y-44759619D01*
X105306715Y-44854857D01*
X105306715Y-44950095D01*
X105259096Y-45092952D01*
X104687667Y-45664381D01*
X105306715Y-45664381D01*
D12*
X102595371Y-44628028D02*
X102595371Y-45485171D01*
X102595371Y-45056599D02*
X101095371Y-45056599D01*
X101309657Y-45199456D01*
X101452514Y-45342314D01*
X101523943Y-45485171D01*
D13*
X123317695Y-81699981D02*
X123317695Y-82509505D01*
X123365314Y-82604743D01*
X123412933Y-82652362D01*
X123508171Y-82699981D01*
X123698648Y-82699981D01*
X123793886Y-82652362D01*
X123841505Y-82604743D01*
X123889124Y-82509505D01*
X123889124Y-81699981D01*
X124889124Y-82699981D02*
X124317695Y-82699981D01*
X124603409Y-82699981D02*
X124603409Y-81699981D01*
X124508171Y-81842838D01*
X124412933Y-81938076D01*
X124317695Y-81985695D01*
X132246267Y-89354267D02*
X132722458Y-89354267D01*
X132151029Y-89639981D02*
X132484362Y-88639981D01*
X132817696Y-89639981D01*
X133579601Y-88973314D02*
X133579601Y-89639981D01*
X133151029Y-88973314D02*
X133151029Y-89497124D01*
X133198648Y-89592362D01*
X133293886Y-89639981D01*
X133436744Y-89639981D01*
X133531982Y-89592362D01*
X133579601Y-89544743D01*
X134484363Y-89639981D02*
X134484363Y-88639981D01*
X134484363Y-89592362D02*
X134389125Y-89639981D01*
X134198648Y-89639981D01*
X134103410Y-89592362D01*
X134055791Y-89544743D01*
X134008172Y-89449505D01*
X134008172Y-89163790D01*
X134055791Y-89068552D01*
X134103410Y-89020933D01*
X134198648Y-88973314D01*
X134389125Y-88973314D01*
X134484363Y-89020933D01*
X134960553Y-89639981D02*
X134960553Y-88973314D01*
X134960553Y-88639981D02*
X134912934Y-88687600D01*
X134960553Y-88735219D01*
X135008172Y-88687600D01*
X134960553Y-88639981D01*
X134960553Y-88735219D01*
X135579600Y-89639981D02*
X135484362Y-89592362D01*
X135436743Y-89544743D01*
X135389124Y-89449505D01*
X135389124Y-89163790D01*
X135436743Y-89068552D01*
X135484362Y-89020933D01*
X135579600Y-88973314D01*
X135722458Y-88973314D01*
X135817696Y-89020933D01*
X135865315Y-89068552D01*
X135912934Y-89163790D01*
X135912934Y-89449505D01*
X135865315Y-89544743D01*
X135817696Y-89592362D01*
X135722458Y-89639981D01*
X135579600Y-89639981D01*
X121817695Y-88639981D02*
X121817695Y-89449505D01*
X121865314Y-89544743D01*
X121912933Y-89592362D01*
X122008171Y-89639981D01*
X122198648Y-89639981D01*
X122293886Y-89592362D01*
X122341505Y-89544743D01*
X122389124Y-89449505D01*
X122389124Y-88639981D01*
X122817695Y-89592362D02*
X122960552Y-89639981D01*
X123198648Y-89639981D01*
X123293886Y-89592362D01*
X123341505Y-89544743D01*
X123389124Y-89449505D01*
X123389124Y-89354267D01*
X123341505Y-89259029D01*
X123293886Y-89211410D01*
X123198648Y-89163790D01*
X123008171Y-89116171D01*
X122912933Y-89068552D01*
X122865314Y-89020933D01*
X122817695Y-88925695D01*
X122817695Y-88830457D01*
X122865314Y-88735219D01*
X122912933Y-88687600D01*
X123008171Y-88639981D01*
X123246267Y-88639981D01*
X123389124Y-88687600D01*
X124151029Y-89116171D02*
X124293886Y-89163790D01*
X124341505Y-89211410D01*
X124389124Y-89306648D01*
X124389124Y-89449505D01*
X124341505Y-89544743D01*
X124293886Y-89592362D01*
X124198648Y-89639981D01*
X123817695Y-89639981D01*
X123817695Y-88639981D01*
X124151029Y-88639981D01*
X124246267Y-88687600D01*
X124293886Y-88735219D01*
X124341505Y-88830457D01*
X124341505Y-88925695D01*
X124293886Y-89020933D01*
X124246267Y-89068552D01*
X124151029Y-89116171D01*
X123817695Y-89116171D01*
X105889124Y-89116171D02*
X106031981Y-89163790D01*
X106079600Y-89211410D01*
X106127219Y-89306648D01*
X106127219Y-89449505D01*
X106079600Y-89544743D01*
X106031981Y-89592362D01*
X105936743Y-89639981D01*
X105555790Y-89639981D01*
X105555790Y-88639981D01*
X105889124Y-88639981D01*
X105984362Y-88687600D01*
X106031981Y-88735219D01*
X106079600Y-88830457D01*
X106079600Y-88925695D01*
X106031981Y-89020933D01*
X105984362Y-89068552D01*
X105889124Y-89116171D01*
X105555790Y-89116171D01*
X106984362Y-89639981D02*
X106984362Y-89116171D01*
X106936743Y-89020933D01*
X106841505Y-88973314D01*
X106651028Y-88973314D01*
X106555790Y-89020933D01*
X106984362Y-89592362D02*
X106889124Y-89639981D01*
X106651028Y-89639981D01*
X106555790Y-89592362D01*
X106508171Y-89497124D01*
X106508171Y-89401886D01*
X106555790Y-89306648D01*
X106651028Y-89259029D01*
X106889124Y-89259029D01*
X106984362Y-89211410D01*
X107317695Y-88973314D02*
X107698647Y-88973314D01*
X107460552Y-88639981D02*
X107460552Y-89497124D01*
X107508171Y-89592362D01*
X107603409Y-89639981D01*
X107698647Y-89639981D01*
X107889124Y-88973314D02*
X108270076Y-88973314D01*
X108031981Y-88639981D02*
X108031981Y-89497124D01*
X108079600Y-89592362D01*
X108174838Y-89639981D01*
X108270076Y-89639981D01*
X109936744Y-89544743D02*
X109889125Y-89592362D01*
X109746268Y-89639981D01*
X109651030Y-89639981D01*
X109508172Y-89592362D01*
X109412934Y-89497124D01*
X109365315Y-89401886D01*
X109317696Y-89211410D01*
X109317696Y-89068552D01*
X109365315Y-88878076D01*
X109412934Y-88782838D01*
X109508172Y-88687600D01*
X109651030Y-88639981D01*
X109746268Y-88639981D01*
X109889125Y-88687600D01*
X109936744Y-88735219D01*
X110508172Y-89639981D02*
X110412934Y-89592362D01*
X110365315Y-89544743D01*
X110317696Y-89449505D01*
X110317696Y-89163790D01*
X110365315Y-89068552D01*
X110412934Y-89020933D01*
X110508172Y-88973314D01*
X110651030Y-88973314D01*
X110746268Y-89020933D01*
X110793887Y-89068552D01*
X110841506Y-89163790D01*
X110841506Y-89449505D01*
X110793887Y-89544743D01*
X110746268Y-89592362D01*
X110651030Y-89639981D01*
X110508172Y-89639981D01*
X111270077Y-88973314D02*
X111270077Y-89639981D01*
X111270077Y-89068552D02*
X111317696Y-89020933D01*
X111412934Y-88973314D01*
X111555792Y-88973314D01*
X111651030Y-89020933D01*
X111698649Y-89116171D01*
X111698649Y-89639981D01*
X112174839Y-88973314D02*
X112174839Y-89639981D01*
X112174839Y-89068552D02*
X112222458Y-89020933D01*
X112317696Y-88973314D01*
X112460554Y-88973314D01*
X112555792Y-89020933D01*
X112603411Y-89116171D01*
X112603411Y-89639981D01*
X113672171Y-62270971D02*
X114529314Y-62556686D01*
X115957885Y-62556686D01*
X116529314Y-62270971D01*
X116815028Y-61985257D01*
X117100743Y-61413829D01*
X117100743Y-60842400D01*
X116815028Y-60270971D01*
X116529314Y-59985257D01*
X115957885Y-59699543D01*
X114815028Y-59413829D01*
X114243600Y-59128114D01*
X113957885Y-58842400D01*
X113672171Y-58270971D01*
X113672171Y-57699543D01*
X113957885Y-57128114D01*
X114243600Y-56842400D01*
X114815028Y-56556686D01*
X116243600Y-56556686D01*
X117100743Y-56842400D01*
X119672171Y-62556686D02*
X119672171Y-56556686D01*
X122529314Y-62556686D02*
X122529314Y-56556686D01*
X124529314Y-60842400D01*
X126529314Y-56556686D01*
X126529314Y-62556686D01*
X137824838Y-48512362D02*
X137967695Y-48559981D01*
X138205791Y-48559981D01*
X138301029Y-48512362D01*
X138348648Y-48464743D01*
X138396267Y-48369505D01*
X138396267Y-48274267D01*
X138348648Y-48179029D01*
X138301029Y-48131410D01*
X138205791Y-48083790D01*
X138015314Y-48036171D01*
X137920076Y-47988552D01*
X137872457Y-47940933D01*
X137824838Y-47845695D01*
X137824838Y-47750457D01*
X137872457Y-47655219D01*
X137920076Y-47607600D01*
X138015314Y-47559981D01*
X138253410Y-47559981D01*
X138396267Y-47607600D01*
X138824838Y-48179029D02*
X139586743Y-48179029D01*
X137824838Y-51052362D02*
X137967695Y-51099981D01*
X138205791Y-51099981D01*
X138301029Y-51052362D01*
X138348648Y-51004743D01*
X138396267Y-50909505D01*
X138396267Y-50814267D01*
X138348648Y-50719029D01*
X138301029Y-50671410D01*
X138205791Y-50623790D01*
X138015314Y-50576171D01*
X137920076Y-50528552D01*
X137872457Y-50480933D01*
X137824838Y-50385695D01*
X137824838Y-50290457D01*
X137872457Y-50195219D01*
X137920076Y-50147600D01*
X138015314Y-50099981D01*
X138253410Y-50099981D01*
X138396267Y-50147600D01*
X138824838Y-50719029D02*
X139586743Y-50719029D01*
X139205791Y-51099981D02*
X139205791Y-50338076D01*
X137777219Y-53639981D02*
X137777219Y-52639981D01*
X138110553Y-53354267D01*
X138443886Y-52639981D01*
X138443886Y-53639981D01*
X138920076Y-53259029D02*
X139681981Y-53259029D01*
X137777219Y-56199981D02*
X137777219Y-55199981D01*
X138110553Y-55914267D01*
X138443886Y-55199981D01*
X138443886Y-56199981D01*
X138920076Y-55819029D02*
X139681981Y-55819029D01*
X139301029Y-56199981D02*
X139301029Y-55438076D01*
X138317695Y-58719981D02*
X138317695Y-57719981D01*
X138889124Y-58719981D01*
X138889124Y-57719981D01*
X139317695Y-58672362D02*
X139460552Y-58719981D01*
X139698648Y-58719981D01*
X139793886Y-58672362D01*
X139841505Y-58624743D01*
X139889124Y-58529505D01*
X139889124Y-58434267D01*
X139841505Y-58339029D01*
X139793886Y-58291410D01*
X139698648Y-58243790D01*
X139508171Y-58196171D01*
X139412933Y-58148552D01*
X139365314Y-58100933D01*
X139317695Y-58005695D01*
X139317695Y-57910457D01*
X139365314Y-57815219D01*
X139412933Y-57767600D01*
X139508171Y-57719981D01*
X139746267Y-57719981D01*
X139889124Y-57767600D01*
X138015790Y-61239981D02*
X138015790Y-60239981D01*
X138396743Y-60239981D01*
X138491981Y-60287600D01*
X138539600Y-60335219D01*
X138587219Y-60430457D01*
X138587219Y-60573314D01*
X138539600Y-60668552D01*
X138491981Y-60716171D01*
X138396743Y-60763790D01*
X138015790Y-60763790D01*
X138968171Y-61192362D02*
X139111028Y-61239981D01*
X139349124Y-61239981D01*
X139444362Y-61192362D01*
X139491981Y-61144743D01*
X139539600Y-61049505D01*
X139539600Y-60954267D01*
X139491981Y-60859029D01*
X139444362Y-60811410D01*
X139349124Y-60763790D01*
X139158647Y-60716171D01*
X139063409Y-60668552D01*
X139015790Y-60620933D01*
X138968171Y-60525695D01*
X138968171Y-60430457D01*
X139015790Y-60335219D01*
X139063409Y-60287600D01*
X139158647Y-60239981D01*
X139396743Y-60239981D01*
X139539600Y-60287600D01*
X139825314Y-60573314D02*
X140206266Y-60573314D01*
X139968171Y-60239981D02*
X139968171Y-61097124D01*
X140015790Y-61192362D01*
X140111028Y-61239981D01*
X140206266Y-61239981D01*
X139151029Y-63779981D02*
X138817695Y-63303790D01*
X138579600Y-63779981D02*
X138579600Y-62779981D01*
X138960553Y-62779981D01*
X139055791Y-62827600D01*
X139103410Y-62875219D01*
X139151029Y-62970457D01*
X139151029Y-63113314D01*
X139103410Y-63208552D01*
X139055791Y-63256171D01*
X138960553Y-63303790D01*
X138579600Y-63303790D01*
X139579600Y-63779981D02*
X139579600Y-62779981D01*
X138008171Y-66339981D02*
X138008171Y-65339981D01*
X138579600Y-66339981D02*
X138151028Y-65768552D01*
X138579600Y-65339981D02*
X138008171Y-65911410D01*
X139389124Y-66292362D02*
X139293886Y-66339981D01*
X139103409Y-66339981D01*
X139008171Y-66292362D01*
X138960552Y-66197124D01*
X138960552Y-65816171D01*
X139008171Y-65720933D01*
X139103409Y-65673314D01*
X139293886Y-65673314D01*
X139389124Y-65720933D01*
X139436743Y-65816171D01*
X139436743Y-65911410D01*
X138960552Y-66006648D01*
X139770076Y-65673314D02*
X140008171Y-66339981D01*
X140246267Y-65673314D02*
X140008171Y-66339981D01*
X139912933Y-66578076D01*
X139865314Y-66625695D01*
X139770076Y-66673314D01*
X138531981Y-68879981D02*
X138198647Y-68403790D01*
X137960552Y-68879981D02*
X137960552Y-67879981D01*
X138341505Y-67879981D01*
X138436743Y-67927600D01*
X138484362Y-67975219D01*
X138531981Y-68070457D01*
X138531981Y-68213314D01*
X138484362Y-68308552D01*
X138436743Y-68356171D01*
X138341505Y-68403790D01*
X137960552Y-68403790D01*
X138817695Y-67879981D02*
X139389124Y-67879981D01*
X139103409Y-68879981D02*
X139103409Y-67879981D01*
X139674838Y-68832362D02*
X139817695Y-68879981D01*
X140055791Y-68879981D01*
X140151029Y-68832362D01*
X140198648Y-68784743D01*
X140246267Y-68689505D01*
X140246267Y-68594267D01*
X140198648Y-68499029D01*
X140151029Y-68451410D01*
X140055791Y-68403790D01*
X139865314Y-68356171D01*
X139770076Y-68308552D01*
X139722457Y-68260933D01*
X139674838Y-68165695D01*
X139674838Y-68070457D01*
X139722457Y-67975219D01*
X139770076Y-67927600D01*
X139865314Y-67879981D01*
X140103410Y-67879981D01*
X140246267Y-67927600D01*
X138277695Y-70399981D02*
X138849124Y-70399981D01*
X138563409Y-71399981D02*
X138563409Y-70399981D01*
X139087219Y-70399981D02*
X139753886Y-71399981D01*
X139753886Y-70399981D02*
X139087219Y-71399981D01*
X138872934Y-73939981D02*
X138539600Y-73463790D01*
X138301505Y-73939981D02*
X138301505Y-72939981D01*
X138682458Y-72939981D01*
X138777696Y-72987600D01*
X138825315Y-73035219D01*
X138872934Y-73130457D01*
X138872934Y-73273314D01*
X138825315Y-73368552D01*
X138777696Y-73416171D01*
X138682458Y-73463790D01*
X138301505Y-73463790D01*
X139206267Y-72939981D02*
X139872934Y-73939981D01*
X139872934Y-72939981D02*
X139206267Y-73939981D01*
X138658648Y-76499981D02*
X138325314Y-76023790D01*
X138087219Y-76499981D02*
X138087219Y-75499981D01*
X138468172Y-75499981D01*
X138563410Y-75547600D01*
X138611029Y-75595219D01*
X138658648Y-75690457D01*
X138658648Y-75833314D01*
X138611029Y-75928552D01*
X138563410Y-75976171D01*
X138468172Y-76023790D01*
X138087219Y-76023790D01*
X139039600Y-76452362D02*
X139134838Y-76499981D01*
X139325314Y-76499981D01*
X139420553Y-76452362D01*
X139468172Y-76357124D01*
X139468172Y-76309505D01*
X139420553Y-76214267D01*
X139325314Y-76166648D01*
X139182457Y-76166648D01*
X139087219Y-76119029D01*
X139039600Y-76023790D01*
X139039600Y-75976171D01*
X139087219Y-75880933D01*
X139182457Y-75833314D01*
X139325314Y-75833314D01*
X139420553Y-75880933D01*
X139753886Y-75833314D02*
X140134838Y-75833314D01*
X139896743Y-75499981D02*
X139896743Y-76357124D01*
X139944362Y-76452362D01*
X140039600Y-76499981D01*
X140134838Y-76499981D01*
X138015791Y-78019981D02*
X138349124Y-79019981D01*
X138682458Y-78019981D01*
X139015791Y-79019981D02*
X139015791Y-78353314D01*
X139015791Y-78019981D02*
X138968172Y-78067600D01*
X139015791Y-78115219D01*
X139063410Y-78067600D01*
X139015791Y-78019981D01*
X139015791Y-78115219D01*
X139634838Y-79019981D02*
X139539600Y-78972362D01*
X139491981Y-78924743D01*
X139444362Y-78829505D01*
X139444362Y-78543790D01*
X139491981Y-78448552D01*
X139539600Y-78400933D01*
X139634838Y-78353314D01*
X139777696Y-78353314D01*
X139872934Y-78400933D01*
X139920553Y-78448552D01*
X139968172Y-78543790D01*
X139968172Y-78829505D01*
X139920553Y-78924743D01*
X139872934Y-78972362D01*
X139777696Y-79019981D01*
X139634838Y-79019981D01*
X138277696Y-80627600D02*
X138182458Y-80579981D01*
X138039601Y-80579981D01*
X137896743Y-80627600D01*
X137801505Y-80722838D01*
X137753886Y-80818076D01*
X137706267Y-81008552D01*
X137706267Y-81151410D01*
X137753886Y-81341886D01*
X137801505Y-81437124D01*
X137896743Y-81532362D01*
X138039601Y-81579981D01*
X138134839Y-81579981D01*
X138277696Y-81532362D01*
X138325315Y-81484743D01*
X138325315Y-81151410D01*
X138134839Y-81151410D01*
X138753886Y-81579981D02*
X138753886Y-80579981D01*
X139325315Y-81579981D01*
X139325315Y-80579981D01*
X139801505Y-81579981D02*
X139801505Y-80579981D01*
X140039600Y-80579981D01*
X140182458Y-80627600D01*
X140277696Y-80722838D01*
X140325315Y-80818076D01*
X140372934Y-81008552D01*
X140372934Y-81151410D01*
X140325315Y-81341886D01*
X140277696Y-81437124D01*
X140182458Y-81532362D01*
X140039600Y-81579981D01*
X139801505Y-81579981D01*
X137849124Y-83099981D02*
X138182457Y-84099981D01*
X138515791Y-83099981D01*
X139277696Y-84052362D02*
X139182458Y-84099981D01*
X138991981Y-84099981D01*
X138896743Y-84052362D01*
X138849124Y-84004743D01*
X138801505Y-83909505D01*
X138801505Y-83623790D01*
X138849124Y-83528552D01*
X138896743Y-83480933D01*
X138991981Y-83433314D01*
X139182458Y-83433314D01*
X139277696Y-83480933D01*
X140134839Y-84052362D02*
X140039601Y-84099981D01*
X139849124Y-84099981D01*
X139753886Y-84052362D01*
X139706267Y-84004743D01*
X139658648Y-83909505D01*
X139658648Y-83623790D01*
X139706267Y-83528552D01*
X139753886Y-83480933D01*
X139849124Y-83433314D01*
X140039601Y-83433314D01*
X140134839Y-83480933D01*
X138849124Y-85659981D02*
X138372933Y-85659981D01*
X138325314Y-86136171D01*
X138372933Y-86088552D01*
X138468171Y-86040933D01*
X138706267Y-86040933D01*
X138801505Y-86088552D01*
X138849124Y-86136171D01*
X138896743Y-86231410D01*
X138896743Y-86469505D01*
X138849124Y-86564743D01*
X138801505Y-86612362D01*
X138706267Y-86659981D01*
X138468171Y-86659981D01*
X138372933Y-86612362D01*
X138325314Y-86564743D01*
X139182457Y-85659981D02*
X139515790Y-86659981D01*
X139849124Y-85659981D01*
%LPC*%
D15*
X145961100Y-41503600D03*
X145961100Y-44043600D03*
X145961100Y-46583600D03*
X145961100Y-54203600D03*
X145961100Y-51663600D03*
X145961100Y-49123600D03*
X145961100Y-59283600D03*
X145961100Y-61823600D03*
X145961100Y-64363600D03*
X145961100Y-69443600D03*
X145961100Y-71983600D03*
X97701100Y-41503600D03*
X97701100Y-44043600D03*
X97701100Y-46583600D03*
X97701100Y-49123600D03*
X97701100Y-51663600D03*
X97701100Y-54203600D03*
X97701100Y-56743600D03*
X97701100Y-59283600D03*
X97701100Y-63347600D03*
X97701100Y-65887600D03*
X97701100Y-68427600D03*
X97701100Y-70967600D03*
X97701100Y-73507600D03*
X97701100Y-76047600D03*
X97701100Y-78587600D03*
X97701100Y-81127600D03*
X145961100Y-66903600D03*
X97701100Y-83667600D03*
X97701100Y-86207600D03*
X145961100Y-74523600D03*
X145961100Y-77063600D03*
X101841800Y-43281600D03*
X103841800Y-43281600D03*
X105841800Y-43281600D03*
X107841800Y-43281600D03*
D16*
X141579600Y-86207600D03*
X141579600Y-83667600D03*
X141579600Y-81127600D03*
X141579600Y-78587600D03*
X141579600Y-76047600D03*
X141579600Y-73507600D03*
X141579600Y-70967600D03*
X141579600Y-68427600D03*
X141579600Y-65887600D03*
X141579600Y-63347600D03*
X141579600Y-60807600D03*
X141579600Y-58267600D03*
X141579600Y-55727600D03*
X141579600Y-53187600D03*
X141579600Y-50647600D03*
X141579600Y-48107600D03*
D17*
X101579600Y-84707600D03*
X101579600Y-49587600D03*
M02*
