G04 #@! TF.FileFunction,Profile,NP*
%FSLAX46Y46*%
G04 Gerber Fmt 4.6, Leading zero omitted, Abs format (unit mm)*
G04 Created by KiCad (PCBNEW 4.0.2-stable) date Thursday, April 27, 2017 'PMt' 03:17:06 PM*
%MOMM*%
G01*
G04 APERTURE LIST*
%ADD10C,0.100000*%
%ADD11C,0.150000*%
G04 APERTURE END LIST*
D10*
D11*
X136213800Y-85207600D02*
X139213800Y-88207600D01*
X106713800Y-85207600D02*
X136213800Y-85207600D01*
X103713800Y-88207600D02*
X106713800Y-85207600D01*
X144213800Y-88207600D02*
X143713800Y-88207600D01*
X144213800Y-79707600D02*
X144213800Y-88207600D01*
X148713800Y-79707600D02*
X144213800Y-79707600D01*
X148713800Y-66207600D02*
X148713800Y-79707600D01*
X148713800Y-39707600D02*
X148213800Y-39707600D01*
X148713800Y-66207600D02*
X148713800Y-39707600D01*
X106713800Y-49207600D02*
X111213800Y-47207600D01*
X104713800Y-49207600D02*
X106713800Y-49207600D01*
X104713800Y-49707600D02*
X104713800Y-49207600D01*
X147713800Y-39707600D02*
X148213800Y-39707600D01*
X144213800Y-39707600D02*
X147713800Y-39707600D01*
X135713800Y-49207600D02*
X144213800Y-39707600D01*
X135713800Y-69207600D02*
X135713800Y-49207600D01*
X104713800Y-69207600D02*
X135713800Y-69207600D01*
X104713800Y-49707600D02*
X104713800Y-69207600D01*
X111213800Y-39707600D02*
X111213800Y-47207600D01*
X95213800Y-39707600D02*
X111213800Y-39707600D01*
X95213800Y-88207600D02*
X95213800Y-39707600D01*
X95713800Y-88207600D02*
X95213800Y-88207600D01*
X103713800Y-88207600D02*
X95713800Y-88207600D01*
X143713800Y-88207600D02*
X139213800Y-88207600D01*
M02*
